# This file uses centimeters as units for non-parametric coordinates.

mtllib immobileenemy1.mtl
g default
v -0.403888 -0.500000 0.477597
v 0.727015 -0.500000 0.855369
v -0.289774 0.500000 0.289774
v 0.280647 0.500000 0.295433
v -0.299083 0.500000 -0.310146
v 0.289774 0.500000 -0.289774
v -0.547274 -0.500000 -0.317443
v 0.806601 -0.500000 -1.014336
v -0.417540 0.500000 0.000000
v 0.385865 0.500000 0.000000
v 0.592294 -0.500000 0.000000
v -1.265515 -0.500000 0.000000
v -0.132988 -0.500000 0.578772
v 0.000000 -0.500000 0.000000
v -0.182523 -0.500000 -0.439020
v 0.000000 0.500000 -0.385865
v 0.000000 0.500000 0.000000
v 0.000000 0.500000 0.385865
v -0.332631 0.000000 0.332631
v 0.000000 0.000000 0.442932
v 0.323503 0.000000 0.338290
v 0.442932 0.000000 0.000000
v 0.332631 0.000000 -0.332631
v 0.000000 0.000000 -0.442932
v -0.307220 0.000000 -0.295507
v -0.442932 0.000000 0.000000
v -0.330020 0.500000 0.165010
v 0.000000 0.500000 0.250000
v 0.330020 0.500000 0.165010
v 0.378829 0.000000 0.189414
v 0.472768 -0.500000 0.338428
v 0.000000 -0.500000 0.250000
v -0.506574 -0.500000 0.082745
v -0.378829 0.000000 0.189414
v -0.506574 -0.500000 -0.212703
v 0.000000 -0.500000 -0.250000
v 0.506574 -0.500000 -0.253287
v 0.378829 0.000000 -0.189414
v 0.330020 0.500000 -0.165010
v 0.000000 0.500000 -0.250000
v -0.330020 0.500000 -0.165010
v -0.378829 0.000000 -0.189414
v 0.250000 -0.500000 0.000000
v 0.250000 -0.500000 0.250000
v 0.267306 -0.500000 0.452359
v 0.168773 0.000000 0.355917
v 0.144369 0.500000 0.307109
v 0.187500 0.500000 0.187500
v 0.250000 0.500000 0.000000
v 0.187500 0.500000 -0.187500
v 0.165010 0.500000 -0.361044
v 0.189414 0.000000 -0.378829
v 0.253287 -0.500000 -0.506574
v 0.250000 -0.500000 -0.250000
v -0.393219 -0.500000 1.046907
v -0.250000 -0.500000 0.250000
v -0.250000 -0.500000 0.000000
v -0.250000 -0.500000 -0.250000
v -0.747761 -0.500000 -1.038222
v -0.189414 0.000000 -0.378829
v -0.165010 0.500000 -0.330020
v -0.187500 0.500000 -0.187500
v -0.250000 0.500000 0.000000
v -0.187500 0.500000 0.187500
v -0.165010 0.500000 0.330020
v -0.189414 0.000000 0.378829
v -0.307281 0.250000 -0.307281
v -0.174979 0.250000 -0.349958
v 0.000000 0.250000 -0.409177
v 0.174979 0.250000 -0.349958
v 0.307281 0.250000 -0.307281
v 0.349958 0.250000 -0.174979
v 0.409177 0.250000 0.000000
v 0.349958 0.250000 0.174979
v 0.298154 0.250000 0.312940
v 0.154338 0.250000 0.327047
v 0.000000 0.250000 0.409177
v -0.174979 0.250000 0.349958
v -0.307281 0.250000 0.307281
v -0.349958 0.250000 0.174979
v -0.409177 0.250000 0.000000
v -0.349958 0.250000 -0.174979
v -0.337016 -0.352648 0.423748
v -0.305884 -0.384737 0.596283
v 0.000000 -0.250000 0.479300
v 0.184325 -0.250000 0.387022
v 0.448981 -0.381276 0.418237
v 0.409933 -0.250000 0.204967
v 0.479300 -0.250000 0.000000
v 0.409933 -0.339108 -0.264730
v 0.359942 -0.322601 -0.359942
v 0.306363 -0.365727 -0.516961
v 0.000000 -0.250000 -0.479300
v -0.204967 -0.250000 -0.409933
v -0.359942 -0.250000 -0.359942
v -0.525617 -0.349389 -0.143457
v -0.729474 -0.376846 0.000000
v -0.447517 -0.369594 0.141118
vt 0.179301 0.423313
vt 0.625925 0.616811
vt 0.109279 0.399886
vt 0.150360 0.369399
vt 0.781340 0.265471
vt 0.208969 0.478194
vt 0.609698 0.573674
vt 0.666853 0.548402
vt 0.075254 0.357506
vt 0.110381 0.292157
vt 0.208149 0.404175
vt 0.180849 0.346852
vt 0.817317 0.289366
vt 0.234600 0.460726
vt 0.654250 0.509258
vt 0.596610 0.539261
vt 0.726453 0.530608
vt 0.339891 0.922125
vt 0.018660 0.325946
vt 0.132496 0.275544
vt 0.540550 0.568609
vt 0.762020 0.469956
vt 0.782531 0.498179
vt 0.065874 0.085539
vt 0.879110 0.415655
vt 0.434144 0.370348
vt 0.390079 0.361533
vt 0.396475 0.298708
vt 0.453889 0.310752
vt 0.896724 0.124539
vt 0.413062 0.431490
vt 0.360346 0.296155
vt 0.356941 0.359594
vt 0.437686 0.215024
vt 0.501616 0.184977
vt 0.473596 0.393132
vt 0.503312 0.340475
vt 0.355731 0.421460
vt 0.444385 0.445955
vt 0.353521 0.224201
vt 0.538859 0.258314
vt 0.502329 0.411995
vt 0.538695 0.362689
vt 0.465823 0.459917
vt 0.415595 0.175694
vt 0.431880 0.184282
vt 0.604870 0.300146
vt 0.310751 0.233037
vt 0.341025 0.014928
vt 0.248740 0.673675
vt 0.624500 0.267703
vt 0.655057 0.301408
vt 0.569991 0.390205
vt 0.747423 0.232922
vt 0.807987 0.244866
vt 0.791810 0.198613
vt 0.819107 0.157919
vt 0.857021 0.206952
vt 0.296165 0.433315
vt 0.263302 0.446541
vt 0.865360 0.141742
vt 0.906054 0.169038
vt 0.894935 0.255986
vt 0.848681 0.272163
vt 0.330516 0.426541
vt 0.922231 0.215292
vt 0.524235 0.541521
vt 0.915540 0.282634
vt 0.482434 0.480698
vt 0.273185 0.798563
vt 0.335136 0.796619
vt 0.337081 0.858570
vt 0.275130 0.860515
vt 0.271240 0.736612
vt 0.333192 0.734667
vt 0.180685 0.215259
vt 0.380557 0.749918
vt 0.213178 0.862459
vt 0.211233 0.800508
vt 0.263341 0.484962
vt 0.209289 0.738557
vt 0.692604 0.336819
vt 0.741635 0.419682
vt 0.578065 0.508592
vt 0.555669 0.471278
vt 0.603752 0.432770
vt 0.631108 0.475409
vt 0.526684 0.436153
vt 0.654226 0.397005
vt 0.683482 0.443051
vt 0.280601 0.372636
vt 0.238823 0.389622
vt 0.215564 0.329747
vt 0.267597 0.313021
vt 0.156985 0.238570
vt 0.250077 0.257334
vt 0.320513 0.299496
vt 0.324060 0.363155
vt 0.939435 0.246656
vt 0.506846 0.509085
vt 0.839335 0.117199
vt 0.798502 0.131271
vt 0.769902 0.161164
vt 0.756240 0.194064
vt 0.875280 0.289081
vt 0.846781 0.307459
vt 0.382242 0.420267
vt 0.868646 0.100764
vt 0.767268 0.224638
vt 0.552430 0.599786
vt 0.172420 0.500769
vt 0.946774 0.189267
vt 0.938914 0.143630
vt 0.957801 0.219841
vt 0.524645 0.605188
vt 0.261105 0.192425
vt 0.010696 0.709265
vt 0.128727 0.770110
vt 0.400687 0.857389
vt 0.530818 0.990553
vt 0.163167 0.868322
vt 0.066875 0.985375
vt 0.063827 0.280079
vt 0.277792 0.945337
vt 0.321953 0.671377
vt 0.532468 0.070273
vt 0.545642 0.224060
vt 0.151692 0.702193
vt 0.192998 0.918350
vt 0.347592 0.660476
vt 0.738375 0.584804
vt 0.804610 0.583003
vt 0.140596 0.448163
vt 0.681646 0.596775
vt 0.568380 0.639766
vn 0.305951 0.103617 0.946392
vn 0.068877 0.116618 0.990786
vn 0.133448 0.229943 0.964011
vn 0.256883 0.144620 0.955561
vn 0.000000 1.000000 0.000000
vn 0.000000 1.000000 0.000000
vn 0.000000 1.000000 0.000000
vn 0.000000 1.000000 0.000000
vn -0.021385 0.099769 -0.994781
vn 0.315060 0.081004 -0.945609
vn 0.316552 0.235836 -0.918791
vn -0.035603 0.193881 -0.980379
vn 0.000000 -1.000000 0.000000
vn 0.000000 -1.000000 0.000000
vn 0.000000 -1.000000 0.000000
vn 0.000000 -1.000000 0.000000
vn 0.943609 0.108084 -0.312921
vn 0.993414 0.114580 0.000000
vn 0.989491 0.142899 -0.022082
vn 0.937789 0.136581 -0.319215
vn -0.996348 0.085384 0.000000
vn -0.934158 0.069947 -0.349938
vn -0.839639 0.257499 -0.478226
vn -0.942389 0.323327 0.085806
vn 0.000000 1.000000 0.000000
vn 0.000000 1.000000 0.000000
vn 0.936905 0.108777 0.332229
vn 0.947127 0.168092 0.273305
vn 0.000000 -1.000000 0.000000
vn 0.000000 -1.000000 0.000000
vn -0.937809 0.091695 0.334822
vn -0.874278 0.172989 0.453556
vn 0.000000 -1.000000 0.000000
vn 0.000000 -1.000000 0.000000
vn 0.000000 -1.000000 0.000000
vn -0.370033 0.136106 -0.918995
vn -0.328506 0.080660 -0.941051
vn 0.000000 1.000000 0.000000
vn 0.000000 1.000000 0.000000
vn 0.000000 1.000000 0.000000
vn -0.312921 0.108084 0.943609
vn -0.297560 0.292719 0.908721
vn -0.264634 0.737864 0.620907
vn 0.258367 0.327500 0.908840
vn 0.171930 0.285835 0.942729
vn 0.930954 0.296994 0.212416
vn 0.956051 0.293158 -0.004911
vn 0.860743 0.502698 -0.080101
vn -0.102424 0.419870 -0.901786
vn 0.071453 0.141178 -0.987402
vn -0.100765 0.570710 -0.814945
vn -0.622910 0.518128 -0.586111
vn -0.635343 0.766292 0.095581
vn -0.764395 0.282672 0.579480
vn 0.000000 1.000000 0.000000
vn 0.000000 1.000000 0.000000
vn 0.000000 1.000000 0.000000
vn 0.952916 0.209508 0.219222
vn 0.930604 0.110051 0.349092
vn 0.916946 0.350245 -0.191148
vn 0.000000 -1.000000 0.000000
vn 0.000000 -1.000000 0.000000
vn 0.000000 -1.000000 0.000000
vn -0.936669 0.117831 0.329798
vn -0.919815 0.239468 0.310797
vn -0.946080 0.108608 0.305182
vn 0.000000 -1.000000 0.000000
vn 0.000000 -1.000000 0.000000
vn 0.000000 -1.000000 0.000000
vn 0.932032 0.132829 -0.337154
vn 0.798993 0.596646 0.074986
vn 0.946080 0.108608 -0.305182
vn 0.000000 1.000000 0.000000
vn 0.000000 1.000000 0.000000
vn 0.000000 1.000000 0.000000
vn -0.849180 0.206900 -0.485887
vn -0.938781 0.056421 -0.339864
vn -0.835193 0.309922 -0.454314
vn 0.000000 -1.000000 0.000000
vn 0.000000 -1.000000 0.000000
vn 0.000000 -1.000000 0.000000
vn 0.050378 0.158118 0.986134
vn -0.236987 0.573054 0.784503
vn 0.098764 0.098920 0.990182
vn 0.000000 1.000000 0.000000
vn 0.000000 1.000000 0.000000
vn 0.000000 1.000000 0.000000
vn 0.000000 1.000000 0.000000
vn 0.000000 1.000000 0.000000
vn 0.526711 0.239226 -0.815688
vn 0.352966 0.082952 -0.931952
vn 0.216140 0.591477 -0.776813
vn 0.000000 -1.000000 0.000000
vn 0.000000 -1.000000 0.000000
vn 0.000000 -1.000000 0.000000
vn 0.000000 -1.000000 0.000000
vn 0.000000 -1.000000 0.000000
vn 0.000000 -1.000000 0.000000
vn 0.000000 -1.000000 0.000000
vn -0.439741 0.141386 -0.886926
vn -0.606061 0.789846 -0.093984
vn -0.344358 0.042795 -0.937863
vn 0.000000 1.000000 0.000000
vn 0.000000 1.000000 0.000000
vn 0.000000 1.000000 0.000000
vn 0.000000 1.000000 0.000000
vn 0.000000 1.000000 0.000000
vn -0.562693 0.283627 0.776487
vn -0.305182 0.108608 0.946080
vn -0.767964 0.478605 0.425639
vn -0.228410 0.041512 -0.972680
vn -0.281022 0.068300 -0.957268
vn -0.046951 0.061290 -0.997015
vn 0.311917 0.030978 -0.949604
vn 0.405000 0.033988 -0.913685
vn 0.945482 0.087909 -0.313586
vn 0.948034 0.087802 -0.305813
vn 0.995681 0.092845 0.000000
vn 0.938590 0.088490 0.333493
vn 0.931994 0.089104 0.351350
vn 0.307673 0.084306 0.947750
vn 0.091373 0.079360 0.992649
vn 0.073213 0.094442 0.992835
vn -0.313586 0.087909 0.945482
vn -0.305813 0.087802 0.948034
vn -0.931915 0.053913 0.358647
vn -0.948034 0.087802 0.305813
vn -0.999496 0.031739 0.000000
vn -0.940838 0.041750 -0.336274
vn -0.964931 0.057935 -0.256031
vn -0.794751 0.602786 0.070856
vn -0.014485 0.838289 0.545035
vn 0.443112 0.514973 0.733794
vn -0.038634 0.534272 0.844429
vn -0.297622 0.655034 0.694515
vn 0.883016 0.370551 -0.288052
vn 0.918167 0.395410 -0.024910
vn 0.905251 0.424315 0.021862
vn 0.783386 0.621455 0.009979
vn 0.685993 0.695511 0.213724
vn -0.274743 0.304982 -0.911867
vn -0.387459 0.714481 -0.582574
vn 0.407119 0.104717 -0.907352
vn -0.362367 0.882855 -0.298758
vn -0.583353 0.811488 0.034445
vn -0.892491 0.390045 -0.226548
vn -0.541063 0.627436 -0.559977
vn -0.410971 0.891130 -0.192329
vn -0.451238 0.336545 0.826512
vn -0.879368 0.394339 0.266851
s 1
g pCube1
usemtl initialShadingGroup
f 76/84/1 77/85/2 20/86/3 46/87/4
s 2
f 49/55/5 50/56/6 40/57/7 17/58/8
s 3
f 69/91/9 70/92/10 52/93/11 24/94/12
s 4
f 14/70/13 36/71/14 54/72/15 43/73/16
s 5
f 72/1/17 73/133/18 22/3/19 38/4/20
s 6
f 81/26/21 82/27/22 42/28/23 26/29/24
s 2
f 17/58/8 28/63/25 48/64/26 49/55/5
s 5
f 73/2/18 74/7/27 30/8/28 22/134/19
s 4
f 43/73/16 44/78/29 32/79/30 14/70/13
s 6
f 80/36/31 81/26/21 26/29/24 34/37/32
s 4
f 56/81/33 57/74/34 14/70/13 32/79/30
f 57/74/34 58/75/35 36/71/14 14/70/13
s 3
f 60/97/36 68/98/37 69/91/9 24/94/12
s 2
f 62/61/38 63/62/39 17/58/8 40/57/7
f 63/62/39 64/66/40 28/63/25 17/58/8
s 1
f 77/85/2 78/88/41 66/53/42 20/86/3
f 66/53/42 84/52/43 85/89/44 20/86/3
f 85/89/44 86/90/45 46/87/4 20/86/3
s 5
f 30/8/28 88/17/46 89/131/47 22/134/19
f 89/9/47 90/10/48 38/4/20 22/3/19
s 3
f 92/95/49 93/96/50 24/94/12 52/93/11
f 93/96/50 94/48/51 60/97/36 24/94/12
s 6
f 42/28/23 96/34/52 97/35/53 26/29/24
f 97/35/53 98/41/54 34/37/32 26/29/24
s 2
f 64/66/40 65/99/55 18/68/56 28/63/25
f 47/105/57 48/64/26 28/63/25 18/68/56
s 5
f 21/15/58 30/8/28 74/7/27 75/16/59
f 87/22/60 88/17/46 30/8/28 21/15/58
s 4
f 13/118/61 32/79/30 44/78/29 45/121/62
f 55/117/63 56/81/33 32/79/30 13/118/61
s 6
f 19/43/64 34/37/32 98/41/54 83/47/65
f 79/42/66 80/36/31 34/37/32 19/43/64
s 4
f 58/75/35 59/115/67 15/77/68 36/71/14
f 53/119/69 54/72/15 36/71/14 15/77/68
s 5
f 23/12/70 38/4/20 90/10/48 91/20/71
f 71/11/72 72/1/17 38/4/20 23/12/70
s 2
f 16/102/73 40/57/7 50/56/6 51/103/74
f 61/101/75 62/61/38 40/57/7 16/102/73
s 6
f 25/32/76 42/28/23 82/27/22 67/33/77
f 95/40/78 96/34/52 42/28/23 25/32/76
s 4
f 31/129/79 44/78/29 43/73/16 11/124/80
f 45/121/62 44/78/29 31/129/79 2/122/81
s 1
f 21/15/82 46/87/4 86/90/45 87/22/83
f 75/16/84 76/84/1 46/87/4 21/15/82
s 2
f 29/13/85 48/64/26 47/105/57 4/106/86
f 49/55/5 48/64/26 29/13/85 10/5/87
f 39/109/88 50/56/6 49/55/5 10/5/87
f 51/103/74 50/56/6 39/109/88 6/104/89
s 3
f 23/12/90 52/93/11 70/92/10 71/11/91
f 91/20/92 92/95/49 52/93/11 23/12/90
s 4
f 37/18/93 54/72/15 53/119/69 8/120/94
f 43/73/16 54/72/15 37/18/93 11/124/80
f 33/50/95 56/81/33 55/117/63 1/128/96
f 12/80/97 57/74/34 56/81/33 33/50/95
f 35/125/98 58/75/35 57/74/34 12/80/97
f 7/130/99 59/115/67 58/75/35 35/125/98
s 3
f 25/32/100 60/97/36 94/48/51 95/40/101
f 67/33/102 68/98/37 60/97/36 25/32/100
s 2
f 41/30/103 62/61/38 61/101/75 5/108/104
f 9/113/105 63/62/39 62/61/38 41/30/103
f 27/112/106 64/66/40 63/62/39 9/113/105
f 3/114/107 65/99/55 64/66/40 27/112/106
s 1
f 19/43/108 66/53/42 78/88/41 79/42/109
f 83/47/110 84/52/43 66/53/42 19/43/108
s 3
f 5/38/111 61/65/112 68/98/37 67/33/102
f 69/91/9 68/98/37 61/65/112 16/59/113
f 51/60/114 70/92/10 69/91/9 16/59/113
f 71/11/91 70/92/10 51/60/114 6/14/115
s 5
f 39/6/116 72/1/17 71/11/72 6/14/117
f 10/111/118 73/133/18 72/1/17 39/6/116
f 29/110/119 74/7/27 73/2/18 10/135/118
f 75/16/59 74/7/27 29/110/119 4/21/120
s 1
f 47/67/121 76/84/1 75/16/84 4/21/122
f 18/100/123 77/85/2 76/84/1 47/67/121
f 65/69/124 78/88/41 77/85/2 18/100/123
f 79/42/109 78/88/41 65/69/124 3/44/125
s 6
f 27/39/126 80/36/31 79/42/66 3/44/127
f 9/31/128 81/26/21 80/36/31 27/39/126
f 41/107/129 82/27/22 81/26/21 9/31/128
f 67/33/77 82/27/22 41/107/129 5/38/130
s 1
f 1/51/131 55/54/132 84/52/43 83/47/110
f 85/89/44 84/52/43 55/54/132 13/82/133
f 45/83/134 86/90/45 85/89/44 13/82/133
f 87/22/83 86/90/45 45/83/134 2/25/135
s 5
f 2/25/136 31/23/137 88/17/46 87/22/60
f 89/131/47 88/17/46 31/23/137 11/132/138
f 37/123/139 90/10/48 89/9/47 11/19/138
f 91/20/71 90/10/48 37/123/139 8/24/140
s 3
f 53/76/141 92/95/49 91/20/92 8/24/142
f 15/116/143 93/96/50 92/95/49 53/76/141
f 59/49/144 94/48/51 93/96/50 15/116/143
f 95/40/101 94/48/51 59/49/144 7/45/145
s 6
f 7/45/146 35/46/147 96/34/52 95/40/78
f 97/35/53 96/34/52 35/46/147 12/126/148
f 33/127/149 98/41/54 97/35/53 12/126/148
f 83/47/65 98/41/54 33/127/149 1/51/150
